<svg width="100" height="100" viewBox="0 0 100 100" fill="none" xmlns="http://www.w3.org/2000/svg">
<path d="M46.25 50H56.25V65V80H46.25V65V50Z" fill="#444746"/>
<path d="M45 34.9307C45 31.3798 47.6444 28.75 51.2898 28.75C54.8605 28.75 57.5 31.3798 57.5 35C57.5 38.6252 54.8605 41.25 51.2898 41.25C47.5747 41.25 45 38.6252 45 34.9307Z" fill="#444746"/>
<path d="M50 5C74.853 5 95 25.147 95 50C95 74.8527 74.853 95 50 95C25.1473 95 5 74.8527 5 50C5 25.147 25.1473 5 50 5Z" stroke="#444746" stroke-width="10"/>
</svg>
