<svg width="100" height="100" viewBox="0 0 100 100" fill="none" xmlns="http://www.w3.org/2000/svg">
<path fill-rule="evenodd" clip-rule="evenodd" d="M50 0C77.6145 0 100 22.3855 100 50C100 77.6142 77.6145 100 50 100C22.3858 100 0 77.6142 0 50C0 22.3855 22.3858 0 50 0ZM55.011 45H45.0109V60V75H55.011V60V45ZM50.0508 23.75C46.4054 23.75 43.761 26.3798 43.761 29.9307C43.761 33.6252 46.3357 36.25 50.0508 36.25C53.6215 36.25 56.2609 33.6252 56.2609 30C56.2609 26.3798 53.6215 23.75 50.0508 23.75Z" fill="#041E49"/>
</svg>
