<svg width="69" height="100" viewBox="0 0 69 100" fill="none" xmlns="http://www.w3.org/2000/svg">
<path d="M23.8729 51.7633C13.3023 52.7807 5 61.7218 5 72.5559V90.1605C13.223 92.5887 20.7152 93.9351 27.4023 94.5596L25.9038 92.1962C25.9011 92.192 25.8984 92.1877 25.8957 92.1835M23.8729 51.7633L30.0691 89.3158C30.0667 89.385 30.0832 89.4508 30.1184 89.506L25.8957 92.1835M23.8729 51.7633C23.8608 51.9232 23.8546 52.0848 23.8546 52.248V53.394L24.3538 54.4256L26.9839 59.8618L25.0797 88.9896L25.0746 89.0679L25.0719 89.1464C25.0393 90.1098 25.2653 91.1897 25.8957 92.1835M23.8729 51.7633L25.8957 92.1835M19.1171 19.798C19.4316 15.6483 20.688 12.3292 22.5278 9.83112C23.0802 15.9385 27.4067 22.1674 34.464 22.1674C41.1332 22.1674 45.3625 16.6074 46.2745 10.8418C46.524 11.2217 46.7625 11.6119 46.9905 12.0111C48.7664 15.12 49.717 18.4596 50.1383 20.6749L50.1405 20.686C50.1412 20.6898 50.1419 20.6936 50.1427 20.6974C49.8364 20.8579 49.5371 21.0159 49.2467 21.1691C49.1352 21.228 49.0251 21.2861 48.9164 21.3434C47.916 21.8709 47.0211 22.3369 46.1458 22.7481C44.5051 23.519 43.1437 23.9929 41.841 24.1738L26.7164 24.1022C24.0923 23.6043 21.661 22.6311 19.8131 21.7219C19.4504 21.5435 19.1153 21.3701 18.8111 21.2067C18.9591 20.8039 19.0766 20.3324 19.1171 19.798ZM34.4675 40.2903C30.8057 40.2903 27.4464 38.9939 24.8224 36.8337C24.8559 36.8395 24.8894 36.8453 24.9229 36.851L25.3229 36.9193L25.7287 36.9223L42.2513 37.0409L42.5462 37.043L42.8393 37.0104L43.0042 36.9921C43.0044 36.9921 43.0046 36.9921 43.0048 36.992C43.3783 36.9509 43.7471 36.9002 44.1112 36.8409C41.4859 38.9964 38.1269 40.2903 34.4675 40.2903ZM41.6185 94.8701L43.3491 92.3372L43.4241 92.2274L43.4932 92.1137C43.8807 91.4762 44.3784 90.3469 44.2545 88.9019L42.2273 60.0459L44.8866 54.3689L45.3587 53.361V52.248C45.3587 52.0949 45.3533 51.9431 45.3426 51.7927C55.7803 52.9422 63.9315 61.8195 63.9315 72.5559V90.3255C61.0573 91.5194 53.3491 94.2441 41.6185 94.8701Z" stroke="#444746" stroke-width="10"/>
</svg>
