<svg width="69" height="100" viewBox="0 0 69 100" fill="none" xmlns="http://www.w3.org/2000/svg">
<path d="M14.0503 24.1861C14.0503 23.8408 12.958 20.948 12.9698 20.6063C12.9827 20.2058 14.102 19.8111 14.1314 19.42C14.8783 9.56615 20.2058 2.74359 27.4676 0.179696V8.50794C27.4676 13.2904 30.5999 17.1674 34.464 17.1674C38.3292 17.1674 41.4604 13.2916 41.4604 8.50794V0.407545C50.6483 4.1283 54.0672 14.5718 55.0503 19.7407C55.1231 20.1189 55.9088 20.0167 55.9534 20.3373C56.0956 21.4355 54.3045 24.1861 54.3045 24.1861C50.1292 26.2426 46.4495 28.6996 42.1357 29.1753L26.259 29.1001C19.4623 27.9409 14.0503 24.1861 14.0503 24.1861ZM42.4563 32.0222L42.2872 32.041L25.7646 31.9224C20.9433 31.0991 16.8056 29.113 14.4508 27.7929C15.7838 37.6691 24.2248 45.2903 34.4675 45.2903C44.8828 45.2903 53.4553 37.4096 54.5582 27.2855C54.0203 27.5615 53.4776 27.8364 52.9526 28.1147C49.7134 29.8248 46.3662 31.5912 42.4563 32.0222ZM68.9315 72.5559V93.5427H68.7893L67.4387 94.2286C66.7552 94.5727 55.7256 100 36.7002 100C26.9579 100 15.1214 98.5777 1.49981 94.3226L0.0528517 93.8692L0 93.5427V72.5559C0 58.2813 11.6144 46.6668 25.8867 46.6668H43.0424C57.3194 46.6668 68.9315 58.2813 68.9315 72.5559ZM39.2711 89.3134L37.0525 57.7328C37.0384 57.5648 36.901 57.4392 36.7342 57.4392H32.4509C32.283 57.4392 32.1455 57.5648 32.1338 57.7328L30.0691 89.3157C30.0667 89.385 30.0832 89.4508 30.1184 89.506L34.2455 96.015C34.3031 96.1054 34.4029 96.1606 34.5074 96.1606H34.5156C34.6202 96.1606 34.7165 96.1113 34.7776 96.0197L39.2206 89.5166C39.257 89.4567 39.2805 89.3862 39.2711 89.3134ZM40.3587 52.248C40.3587 51.5163 39.7667 50.9267 39.0374 50.9267H30.1783C29.4466 50.9267 28.8546 51.5163 28.8546 52.248L32.5437 59.8727H36.7871L40.3587 52.248ZM34.4651 16.3453C30.9264 16.3453 28.0478 12.8453 28.0478 8.54317V0H40.8813V8.54435C40.8813 12.8453 38.0039 16.3453 34.4651 16.3453ZM29.2223 1.17448V8.54435C29.2223 12.1982 31.5736 15.1719 34.4651 15.1719C37.3555 15.1719 39.7069 12.1993 39.7069 8.54435V1.17448H29.2223Z" fill="#041E49"/>
</svg>
