<svg width="110" height="110" viewBox="0 0 110 110" fill="none" xmlns="http://www.w3.org/2000/svg">
<path d="M5 56.0195C5 44.5775 5 38.8564 7.596 34.1137C10.192 29.3711 14.9347 26.4275 24.4201 20.5406L34.4201 14.3343C44.4469 8.11145 49.4605 5 55 5C60.5395 5 65.553 8.11145 75.58 14.3343L85.58 20.5406C95.0655 26.4275 99.808 29.3711 102.404 34.1137C105 38.8564 105 44.5775 105 56.0195V63.625C105 83.129 105 92.8815 99.142 98.9405C93.2845 105 83.856 105 65 105H45C26.1438 105 16.7158 105 10.8579 98.9405C5 92.8815 5 83.129 5 63.625V56.0195Z" stroke="#444746" stroke-width="10"/>
<path d="M70 85H40" stroke="#444746" stroke-width="10" stroke-linecap="round"/>
</svg>
