<svg width="100" height="100" viewBox="0 0 100 100" fill="none" xmlns="http://www.w3.org/2000/svg">
<path d="M52.8076 5.07114L52.814 5.07756L94.917 47.1805L94.92 47.1835C94.944 47.2074 94.963 47.2359 94.9759 47.2672C94.9889 47.2984 94.9956 47.332 94.9956 47.3658C94.9956 47.3997 94.9889 47.4333 94.9759 47.4645C94.963 47.4958 94.944 47.5242 94.92 47.5481L94.917 47.5512L47.5511 94.917L47.5461 94.9221L47.541 94.9271C47.5181 94.9502 47.4908 94.9686 47.4607 94.9811C47.4306 94.9936 47.3984 95 47.3658 95C47.3333 95 47.301 94.9936 47.271 94.9811C47.2409 94.9686 47.2136 94.9502 47.1906 94.9271L47.1856 94.9221L47.1805 94.917L5.07757 52.814L5.06811 52.8046C5.02923 52.7659 5 52.708 5 52.6287V5.26288C5 5.19316 5.0277 5.1263 5.07699 5.077C5.12629 5.0277 5.19315 5.00001 5.26287 5.00001L52.6287 5.00001L52.636 5C52.6678 4.99995 52.6994 5.00622 52.7289 5.01842C52.7583 5.03063 52.7851 5.04855 52.8076 5.07114ZM43.8303 90.8255L47.3658 94.361L50.9014 90.8255L90.8255 50.9014L94.361 47.3658L90.8255 43.8303L53.9854 6.99021L52.5209 5.52575H50.4499H10.5257H5.52574V10.5257V50.4499V52.521L6.99021 53.9854L43.8303 90.8255Z" fill="#444746" stroke="#444746" stroke-width="10"/>
<path d="M31.8471 28.9198C31.8471 30.5328 30.5395 31.8404 28.9265 31.8404C27.3135 31.8404 26.0059 30.5328 26.0059 28.9198C26.0059 27.3068 27.3135 25.9991 28.9265 25.9991C30.5395 25.9991 31.8471 27.3068 31.8471 28.9198Z" fill="#444746" stroke="#444746" stroke-width="10"/>
</svg>
