<svg width="100" height="100" viewBox="0 0 100 100" fill="none" xmlns="http://www.w3.org/2000/svg">
<path d="M5 10H50L90 47.5L45 90L5 50V10Z" fill="#041E49"/>
<path d="M56.3496 1.54203C55.8617 1.05236 55.2817 0.66402 54.6431 0.399375C54.0046 0.13473 53.3199 -0.000997046 52.6287 5.51377e-06H5.26287C3.86707 5.51377e-06 2.52844 0.554485 1.54146 1.54146C0.554479 2.52844 0 3.86708 0 5.26288V52.6287C0 54.0286 0.552601 55.3654 1.54202 56.3496L43.645 98.4525C44.1326 98.9429 44.7124 99.3321 45.3509 99.5977C45.9895 99.8633 46.6742 100 47.3658 100C48.0574 100 48.7422 99.8633 49.3807 99.5977C50.0193 99.3321 50.5991 98.9429 51.0867 98.4525L98.4525 51.0867C98.9417 50.5984 99.3297 50.0184 99.5945 49.3799C99.8593 48.7414 99.9956 48.057 99.9956 47.3658C99.9956 46.6746 99.8593 45.9902 99.5945 45.3518C99.3297 44.7133 98.9417 44.1333 98.4525 43.645L56.3496 1.54203ZM47.3658 87.29L10.5257 50.4499V10.5257H50.4499L87.29 47.3658L47.3658 87.29Z" fill="#041E49"/>
<path d="M28.9265 36.8404C33.3009 36.8404 36.8471 33.2942 36.8471 28.9198C36.8471 24.5453 33.3009 20.9991 28.9265 20.9991C24.552 20.9991 21.0059 24.5453 21.0059 28.9198C21.0059 33.2942 24.552 36.8404 28.9265 36.8404Z" fill="white"/>
</svg>
