<svg width="92" height="100" viewBox="0 0 92 100" fill="none" xmlns="http://www.w3.org/2000/svg">
<mask id="path-1-inside-1_297_1542" fill="white">
<path d="M81.9758 0H81.2375C77.7728 0 74.5645 1.94939 72.6538 5.21243C71.9566 6.40417 70.1143 6.54658 69.2404 5.48929C66.3328 1.94939 62.4717 0 58.3439 0C54.2446 0 50.3845 1.94939 47.4735 5.48929C46.6783 6.45771 45.0525 6.45999 44.2527 5.48701C41.3417 1.94939 37.4816 0 33.3823 0C29.283 0 25.423 1.94939 22.512 5.48929C21.6393 6.5557 19.7981 6.40644 19.0997 5.21243C17.1856 1.94939 13.9773 0 10.5137 0H9.68999C4.34768 0 0 4.34768 0 9.68999V90.31C0 95.6523 4.34768 100 9.68999 100H10.5137C13.9761 100 17.1845 98.0506 19.102 94.783C19.7936 93.5924 21.6347 93.4398 22.512 94.5119C25.423 98.0495 29.283 99.9989 33.3823 99.9989C37.4816 99.9989 41.3417 98.0495 44.2527 94.5096C45.0525 93.5389 46.6783 93.5412 47.4735 94.5119C50.3845 98.0495 54.2446 99.9989 58.3724 99.9989C62.4717 99.9989 66.334 98.0495 69.2393 94.5141C70.12 93.4477 71.9611 93.6027 72.6527 94.783C74.5656 98.0506 77.774 100 81.2387 100H81.977C87.3193 100 91.667 95.6523 91.667 90.31V9.69113C91.667 4.34768 87.3181 0 81.9758 0ZM83.3328 90.31C83.3328 91.0586 82.7244 91.667 81.9758 91.667H81.2375C80.538 91.667 79.9945 90.8307 79.8441 90.5721C77.9802 87.3922 74.5337 85.4166 70.8514 85.4166C67.7262 85.4166 64.7948 86.802 62.8032 89.2208C62.0524 90.1346 60.4778 91.6658 58.3439 91.6658C56.2384 91.6658 54.6616 90.1323 53.9107 89.2208C49.9413 84.3844 41.7894 84.3832 37.8154 89.2185C37.0646 90.1323 35.4878 91.6658 33.3823 91.6658C31.2768 91.6658 29.7 90.1323 28.9492 89.2208C26.9633 86.802 24.0296 85.4166 20.9033 85.4166C17.2164 85.4166 13.7699 87.3945 11.9105 90.5721C11.7601 90.8284 11.2144 91.667 10.5149 91.667H9.69113C8.94259 91.667 8.33419 91.0586 8.33419 90.31V9.69113C8.33419 8.94259 8.94259 8.33419 9.69113 8.33419H10.5149C11.2144 8.33419 11.7601 9.17273 11.9083 9.42453C13.7699 12.6067 17.2164 14.5845 20.9033 14.5845C24.0307 14.5845 26.9645 13.1991 28.9492 10.7815C29.7 9.86773 31.2768 8.33419 33.3823 8.33419C35.4878 8.33419 37.0646 9.86772 37.8154 10.7792C41.7894 15.6191 49.9413 15.6134 53.9107 10.7815C54.6616 9.86773 56.2384 8.33419 58.3724 8.33419C60.4778 8.33419 62.0524 9.86658 62.8055 10.7837C64.7947 13.1991 67.7274 14.5845 70.8514 14.5845C74.5337 14.5845 77.9802 12.6089 79.8464 9.42453C79.9945 9.17046 80.538 8.33419 81.2375 8.33419H81.9758C82.7244 8.33419 83.3328 8.94259 83.3328 9.69113V90.31Z"/>
</mask>
<path d="M81.9758 0H81.2375C77.7728 0 74.5645 1.94939 72.6538 5.21243C71.9566 6.40417 70.1143 6.54658 69.2404 5.48929C66.3328 1.94939 62.4717 0 58.3439 0C54.2446 0 50.3845 1.94939 47.4735 5.48929C46.6783 6.45771 45.0525 6.45999 44.2527 5.48701C41.3417 1.94939 37.4816 0 33.3823 0C29.283 0 25.423 1.94939 22.512 5.48929C21.6393 6.5557 19.7981 6.40644 19.0997 5.21243C17.1856 1.94939 13.9773 0 10.5137 0H9.68999C4.34768 0 0 4.34768 0 9.68999V90.31C0 95.6523 4.34768 100 9.68999 100H10.5137C13.9761 100 17.1845 98.0506 19.102 94.783C19.7936 93.5924 21.6347 93.4398 22.512 94.5119C25.423 98.0495 29.283 99.9989 33.3823 99.9989C37.4816 99.9989 41.3417 98.0495 44.2527 94.5096C45.0525 93.5389 46.6783 93.5412 47.4735 94.5119C50.3845 98.0495 54.2446 99.9989 58.3724 99.9989C62.4717 99.9989 66.334 98.0495 69.2393 94.5141C70.12 93.4477 71.9611 93.6027 72.6527 94.783C74.5656 98.0506 77.774 100 81.2387 100H81.977C87.3193 100 91.667 95.6523 91.667 90.31V9.69113C91.667 4.34768 87.3181 0 81.9758 0ZM83.3328 90.31C83.3328 91.0586 82.7244 91.667 81.9758 91.667H81.2375C80.538 91.667 79.9945 90.8307 79.8441 90.5721C77.9802 87.3922 74.5337 85.4166 70.8514 85.4166C67.7262 85.4166 64.7948 86.802 62.8032 89.2208C62.0524 90.1346 60.4778 91.6658 58.3439 91.6658C56.2384 91.6658 54.6616 90.1323 53.9107 89.2208C49.9413 84.3844 41.7894 84.3832 37.8154 89.2185C37.0646 90.1323 35.4878 91.6658 33.3823 91.6658C31.2768 91.6658 29.7 90.1323 28.9492 89.2208C26.9633 86.802 24.0296 85.4166 20.9033 85.4166C17.2164 85.4166 13.7699 87.3945 11.9105 90.5721C11.7601 90.8284 11.2144 91.667 10.5149 91.667H9.69113C8.94259 91.667 8.33419 91.0586 8.33419 90.31V9.69113C8.33419 8.94259 8.94259 8.33419 9.69113 8.33419H10.5149C11.2144 8.33419 11.7601 9.17273 11.9083 9.42453C13.7699 12.6067 17.2164 14.5845 20.9033 14.5845C24.0307 14.5845 26.9645 13.1991 28.9492 10.7815C29.7 9.86773 31.2768 8.33419 33.3823 8.33419C35.4878 8.33419 37.0646 9.86772 37.8154 10.7792C41.7894 15.6191 49.9413 15.6134 53.9107 10.7815C54.6616 9.86773 56.2384 8.33419 58.3724 8.33419C60.4778 8.33419 62.0524 9.86658 62.8055 10.7837C64.7947 13.1991 67.7274 14.5845 70.8514 14.5845C74.5337 14.5845 77.9802 12.6089 79.8464 9.42453C79.9945 9.17046 80.538 8.33419 81.2375 8.33419H81.9758C82.7244 8.33419 83.3328 8.94259 83.3328 9.69113V90.31Z" fill="#444746" stroke="#444746" stroke-width="20" mask="url(#path-1-inside-1_297_1542)"/>
<mask id="path-2-inside-2_297_1542" fill="white">
<path d="M16.6759 54.1774H58.3423V62.5105H16.6759V54.1774ZM16.6748 70.8424H74.9879V79.1755H16.6748V70.8424ZM58.3309 29.1772H64.939L55.3858 38.7316L61.2772 44.623L70.8316 35.0698V41.6779H79.1647V20.8441H58.3309V29.1772Z"/>
</mask>
<path d="M16.6759 54.1774H58.3423V62.5105H16.6759V54.1774ZM16.6748 70.8424H74.9879V79.1755H16.6748V70.8424ZM58.3309 29.1772H64.939L55.3858 38.7316L61.2772 44.623L70.8316 35.0698V41.6779H79.1647V20.8441H58.3309V29.1772Z" fill="#444746" stroke="#444746" stroke-width="20" mask="url(#path-2-inside-2_297_1542)"/>
</svg>
