<svg width="100" height="100" viewBox="0 0 100 100" fill="none" xmlns="http://www.w3.org/2000/svg">
<path d="M83.7577 70C84.1723 69.9994 84.5865 69.9889 85 69.9687V90C85 91.3261 84.4732 92.5978 83.5355 93.5355C82.5978 94.4732 81.3261 95 80 95H20C18.6739 95 17.4022 94.4732 16.4645 93.5355C15.5268 92.5978 15 91.3261 15 90V69.9687C15.4135 69.9889 15.8277 69.9994 16.2423 70L16.2503 70L16.2582 70C20.1565 69.9936 23.9927 69.1273 27.4981 67.4778C31.0063 69.1307 34.8475 69.9957 38.75 69.9957C42.6518 69.9957 46.4923 69.131 50 67.4787C53.5077 69.131 57.3482 69.9957 61.25 69.9957C65.1525 69.9957 68.9937 69.1307 72.5019 67.4778C76.0073 69.1273 79.8435 69.9936 83.7418 70L83.7497 70L83.7577 70ZM86.0428 8.625L86.0434 8.62704L93.9852 36.3482C93.9864 36.3527 93.9877 36.3571 93.989 36.3616C94.6607 38.7655 95.0009 41.2499 95 43.7458C94.9957 45.9482 94.3451 48.1008 93.1288 49.9369C91.9118 51.774 90.1821 53.2133 88.1543 54.076C86.1266 54.9387 83.8901 55.1869 81.7225 54.7898C79.5549 54.3926 77.5517 53.3676 75.9615 51.842L72.4897 48.5111L69.0278 51.8523C66.9399 53.8673 64.1516 54.9933 61.25 54.9933C58.3484 54.9933 55.5601 53.8673 53.4722 51.8523L50 48.5012L46.5278 51.8523C44.44 53.8673 41.6516 54.9933 38.75 54.9933C35.8484 54.9933 33.0601 53.8673 30.9722 51.8523L27.5103 48.5111L24.0385 51.842C22.4483 53.3676 20.4451 54.3926 18.2775 54.7898C16.1099 55.1869 13.8734 54.9387 11.8457 54.076C9.8179 53.2133 8.08815 51.774 6.87116 49.9369C5.65466 48.1005 5.00404 45.9474 5 43.7446C4.99923 41.2492 5.33936 38.7653 6.01096 36.362L13.9566 8.62704L13.9572 8.625C14.2556 7.58176 14.8853 6.66391 15.7512 6.00999C16.6162 5.35667 17.6702 5.00222 18.7542 5H81.2458C82.3298 5.00222 83.3838 5.35667 84.2488 6.00999C85.1147 6.66391 85.7444 7.58176 86.0428 8.625Z" stroke="#444746" stroke-width="10"/>
</svg>
