<svg width="100" height="100" viewBox="0 0 100 100" fill="none" xmlns="http://www.w3.org/2000/svg">
<path d="M90 64.05V90C90 92.6522 88.9464 95.1957 87.0711 97.0711C85.1957 98.9464 82.6522 100 80 100H20C17.3478 100 14.8043 98.9464 12.9289 97.0711C11.0536 95.1957 10 92.6522 10 90V64.05C12.0243 64.6765 14.131 64.9967 16.25 65C20.2237 64.9935 24.1178 63.8858 27.5 61.8C30.8805 63.8891 34.776 64.9957 38.75 64.9957C42.724 64.9957 46.6195 63.8891 50 61.8C53.3805 63.8891 57.276 64.9957 61.25 64.9957C65.224 64.9957 69.1195 63.8891 72.5 61.8C75.8822 63.8858 79.7763 64.9935 83.75 65C85.869 64.9967 87.9757 64.6765 90 64.05ZM98.8 35L90.85 7.25C90.2532 5.16353 88.9939 3.32783 87.2621 2.01998C85.5304 0.712137 83.4201 0.00313481 81.25 0H18.75C16.5799 0.00313481 14.4696 0.712137 12.7379 2.01998C11.0061 3.32783 9.74679 5.16353 9.15 7.25L1.2 35C0.402488 37.8482 -0.00126208 40.7922 2.96352e-06 43.75C0.00509968 46.9331 0.94492 50.0445 2.7028 52.6982C4.46067 55.3518 6.95919 57.4308 9.88819 58.6769C12.8172 59.9231 16.0477 60.2816 19.1786 59.7079C22.3096 59.1342 25.2031 57.6537 27.5 55.45C30.5199 58.3645 34.5531 59.9933 38.75 59.9933C42.947 59.9933 46.9801 58.3645 50 55.45C53.0199 58.3645 57.0531 59.9933 61.25 59.9933C65.447 59.9933 69.4801 58.3645 72.5 55.45C74.7969 57.6537 77.6904 59.1342 80.8214 59.7079C83.9523 60.2816 87.1828 59.9231 90.1118 58.6769C93.0408 57.4308 95.5393 55.3518 97.2972 52.6982C99.0551 50.0445 99.9949 46.9331 100 43.75C100.001 40.7922 99.5975 37.8482 98.8 35Z" fill="#041E49"/>
</svg>
